<?xml version="1.0" encoding="UTF-8"?>
<svg id="Layer_1" xmlns="http://www.w3.org/2000/svg" version="1.1" viewBox="0 0 1052.46 108.75">
  <!-- Generator: Adobe Illustrator 29.5.1, SVG Export Plug-In . SVG Version: 2.1.0 Build 141)  -->
  <defs>
    <style>
      .st0 {
        fill: #0171eb;
      }

      .st1 {
        fill: #efefef;
      }

      .st2 {
        isolation: isolate;
      }

      .st3 {
        fill: #3675f0;
      }
    </style>
  </defs>
  <path class="st3" d="M106.81,17.17c.47,0,.94,0,1.43,0,.99,0,1.98,0,2.97,0,1.51,0,3.02,0,4.53-.01.97,0,1.93,0,2.9,0,.45,0,.9,0,1.36-.01,3.06.04,5.41.53,7.76,2.67,2.29,2.94,2.45,5.09,2.46,8.71q0,.71,0,1.43c0,1.56.01,3.13.01,4.69,0,1.09,0,2.17,0,3.26,0,2.28,0,4.56.01,6.84,0,2.92.02,5.84.03,8.76.01,2.25.01,4.49.01,6.74,0,1.08,0,2.15.01,3.23,0,1.51,0,3.01,0,4.52,0,.44.01.89.02,1.34-.02,3.11-.6,5.41-2.78,7.77-.32.26-.64.52-.97.79q-.48.4-.97.81c-2.08,1.45-3.96,1.21-6.41,1.12-9.61-.21-16.39.02-23.86,6.71-1.85,1.62-3.87,3-5.88,4.41-.81.58-1.61,1.17-2.41,1.75-3.5,2.53-7.06,4.99-10.61,7.45-4.07,2.82-8.11,5.68-12.13,8.57,0-2.15.91-3.63,1.87-5.49.19-.38.39-.77.59-1.16.63-1.23,1.26-2.46,1.89-3.68.41-.8.82-1.6,1.23-2.39,1.22-2.38,2.44-4.75,3.67-7.12.43-.82.85-1.65,1.28-2.47,1.02-1.99,2.05-3.97,3.07-5.95-3.05-.18-6.1-.36-9.25-.54,1.92-2.28,3.87-4.42,5.98-6.53.52-.51,1.03-1.03,1.55-1.55,10.18-10.18,20.36-20.36,30.54-30.54-6.46-.18-12.92-.36-19.58-.54,1.18-3.55,2.76-6.65,4.49-9.96.3-.59.61-1.19.92-1.8q6.2-11.91,14.24-11.85Z"/>
  <path class="st3" d="M54.34,16.17q.61,0,1.24,0c1.34,0,2.69,0,4.03.02.93,0,1.87,0,2.8,0,2.46,0,4.91.01,7.37.03,2.51.01,5.02.02,7.52.02,4.92.01,9.84.03,14.75.05-.86,2.12-2.32,3.55-3.92,5.13-.29.29-.58.58-.87.87-.95.95-1.91,1.9-2.86,2.85-.66.66-1.33,1.32-1.99,1.99-1.75,1.74-3.5,3.48-5.25,5.22-1.78,1.77-3.55,3.54-5.33,5.31-2.87,2.86-5.74,5.72-8.61,8.57-1.45,1.44-2.89,2.88-4.33,4.32,6.64.18,13.28.36,20.12.54-.86,2.58-1.82,4.85-3.06,7.24-.19.38-.39.75-.59,1.14-.41.79-.82,1.59-1.23,2.38-.62,1.19-1.23,2.37-1.84,3.56-2.53,4.91-5.18,9.73-7.97,14.5-2.38.05-4.76.08-7.14.1-.67.01-1.35.03-2.04.04-.65,0-1.3.01-1.98.02-.6,0-1.2.02-1.81.03-2.87-.31-4.97-1.5-6.78-3.72-.27-.32-.53-.64-.81-.97-1.25-1.79-1.29-3.47-1.37-5.58-.02-.58-.05-1.17-.07-1.77-.02-.61-.04-1.22-.06-1.85-.02-.62-.05-1.23-.07-1.86-.06-1.52-.11-3.04-.17-4.56-.53.01-1.06.02-1.6.03-1.97.04-3.94.06-5.91.08-.85.01-1.7.03-2.56.04-1.23.03-2.45.04-3.68.05-.38.01-.76.02-1.15.03-1.93,0-2.99-.21-4.64-1.24-1.41-1.48-1.59-2.42-1.67-4.44q.54-1.63,2.18-2.72c1.5-.09,2.94-.13,4.44-.11q.65,0,1.31,0c1.38,0,2.76.02,4.14.03.94,0,1.87.01,2.81.01,2.29.01,4.59.03,6.88.05,0-.35,0-.71-.01-1.07-.05-3.69-.08-7.38-.1-11.06-.01-1.38-.03-2.75-.04-4.13-.03-1.98-.04-3.96-.05-5.94q-.02-.92-.03-1.86c0-3.4.12-5.45,2.42-8.03,3-2.77,5.58-3.43,9.59-3.39Z"/>
  <path class="st3" d="M20.14,35.08c.46,0,.92,0,1.4-.01.97,0,1.95,0,2.92,0,1.49,0,2.97-.02,4.46-.05.95,0,1.9,0,2.84,0,.44,0,.89-.02,1.34-.03,2.32.03,3.24.16,5.15,1.61q1.06,1.46,1.09,3.43c-.66,2.08-.87,2.46-2.75,3.47-1.62.17-3.13.25-4.76.25-.46,0-.92,0-1.4.01-.97,0-1.95,0-2.92,0-1.49,0-2.97.02-4.46.05-.95,0-1.9,0-2.84,0-.44,0-.89.02-1.34.03-2.32-.03-3.24-.16-5.15-1.61q-1.06-1.46-1.09-3.43c1.21-3.86,3.88-3.72,7.51-3.72Z"/>
  <path class="st3" d="M21.11,67.13c.45,0,.9,0,1.36,0,.95,0,1.9,0,2.85.01,1.45.01,2.89,0,4.34-.01.92,0,1.85,0,2.77,0,.43,0,.86,0,1.31-.01,2.12.04,3.19.17,5.04,1.31q1.08,1.17,1.39,2.8c-.39,2.06-.79,2.57-2.48,3.81-1.64.32-3.25.29-4.91.27-.48,0-.95,0-1.44,0-1,0-2.01,0-3.01-.02-1.54-.02-3.08-.01-4.62,0-.98,0-1.95,0-2.93-.01q-.69,0-1.4,0-3.2-.05-4.38-.95c-1.17-1.55-.93-2.86-.7-4.73,1.77-2.6,3.91-2.49,6.81-2.46Z"/>
  <path class="st3" d="M5.2,52.52q.82,0,1.66,0t1.72.02c.57,0,1.14-.01,1.72-.02.55,0,1.1,0,1.66,0,.5,0,1,0,1.51,0,1.61.25,2.37.72,3.54,1.84q.24,1.36,0,2.72-.63.89-1.63,1.63-1.47.2-3.21.2c-.63,0-1.26,0-1.9,0-.66,0-1.31-.02-1.99-.03q-.99,0-1.99,0-4.9-.03-6.13-1.26-.2-1.6,0-3.26c1.62-1.59,2.82-1.84,5.05-1.85Z"/>
  <path class="st3" d="M34.89,20.48q.86-.03,1.73-.06c1.97.28,2.6.83,3.78,2.41-.09,1.84-.32,2.49-1.63,3.81q-1.71.18-3.77.2c-.68.02-1.36.03-2.05.05q-1.79-.25-2.87-1.24-.55-1.18-.18-2.92c1.15-2.46,2.45-2.18,5-2.24Z"/>
  <g class="st2">
    <g class="st2">
      <path class="st0" d="M199.78,23.28c4.98,5.32,7.48,13.14,7.48,23.45,0,10.88-2.45,19.16-7.34,24.87s-11.19,8.55-18.89,8.55c-4.91,0-8.99-1.23-12.23-3.68-1.78-1.36-3.51-3.34-5.21-5.95v32.17h-15.97V16.65h15.46v9.12c1.74-2.68,3.59-4.79,5.55-6.34,3.59-2.76,7.85-4.13,12.8-4.13,7.21,0,13.33,2.66,18.35,7.99ZM190.6,47.52c0-4.76-1.09-8.97-3.26-12.63s-5.69-5.49-10.56-5.49c-5.85,0-9.88,2.78-12.06,8.33-1.13,2.95-1.7,6.68-1.7,11.21,0,7.17,1.91,12.21,5.72,15.12,2.27,1.7,4.95,2.55,8.04,2.55,4.49,0,7.92-1.74,10.28-5.21s3.54-8.1,3.54-13.88Z"/>
      <path class="st0" d="M249.96,31.55c-6.5,0-10.86,2.12-13.08,6.34-1.25,2.38-1.87,6.04-1.87,10.99v29.51h-16.26V16.65h15.41v10.76c2.49-4.12,4.66-6.93,6.51-8.44,3.02-2.53,6.95-3.79,11.78-3.79.3,0,.56,0,.76.03.21.02.67.05,1.39.09v16.54c-1.02-.11-1.93-.19-2.72-.23s-1.44-.06-1.93-.06Z"/>
      <path class="st0" d="M315.55,24.47c5.21,6.53,7.82,14.25,7.82,23.17s-2.61,16.81-7.82,23.25c-5.21,6.44-13.12,9.66-23.73,9.66s-18.52-3.22-23.73-9.66c-5.21-6.44-7.82-14.19-7.82-23.25s2.61-16.63,7.82-23.17,13.12-9.8,23.73-9.8,18.52,3.27,23.73,9.8ZM291.76,28.32c-4.72,0-8.36,1.67-10.9,5.01-2.55,3.34-3.82,8.11-3.82,14.3s1.27,10.97,3.82,14.33,6.18,5.04,10.9,5.04,8.34-1.68,10.88-5.04c2.53-3.36,3.79-8.14,3.79-14.33s-1.27-10.96-3.79-14.3c-2.53-3.34-6.16-5.01-10.88-5.01Z"/>
      <path class="st0" d="M369.58,33.64c-1.36-2.98-4.02-4.47-7.99-4.47-4.61,0-7.7,1.49-9.29,4.47-.87,1.7-1.3,4.23-1.3,7.59v37.16h-16.37V16.77h15.69v9.01c2-3.21,3.89-5.49,5.66-6.85,3.13-2.42,7.19-3.62,12.18-3.62,4.72,0,8.53,1.04,11.44,3.12,2.34,1.93,4.12,4.4,5.32,7.42,2.11-3.62,4.74-6.29,7.87-7.99,3.32-1.7,7.02-2.55,11.1-2.55,2.72,0,5.4.53,8.04,1.59,2.64,1.06,5.04,2.91,7.19,5.55,1.74,2.15,2.91,4.79,3.51,7.93.38,2.08.57,5.12.57,9.12l-.11,38.91h-16.54v-39.31c0-2.34-.38-4.27-1.13-5.78-1.44-2.87-4.08-4.3-7.93-4.3-4.46,0-7.53,1.85-9.23,5.55-.87,1.96-1.3,4.32-1.3,7.08v36.76h-16.26v-36.76c0-3.66-.38-6.32-1.13-7.99Z"/>
      <path class="st0" d="M489.78,23.28c4.98,5.32,7.48,13.14,7.48,23.45,0,10.88-2.45,19.16-7.34,24.87s-11.19,8.55-18.89,8.55c-4.91,0-8.99-1.23-12.23-3.68-1.78-1.36-3.51-3.34-5.21-5.95v32.17h-15.97V16.65h15.46v9.12c1.74-2.68,3.59-4.79,5.55-6.34,3.59-2.76,7.85-4.13,12.8-4.13,7.21,0,13.33,2.66,18.35,7.99ZM480.6,47.52c0-4.76-1.09-8.97-3.26-12.63s-5.69-5.49-10.56-5.49c-5.85,0-9.88,2.78-12.06,8.33-1.13,2.95-1.7,6.68-1.7,11.21,0,7.17,1.91,12.21,5.72,15.12,2.27,1.7,4.95,2.55,8.04,2.55,4.49,0,7.92-1.74,10.28-5.21s3.54-8.1,3.54-13.88Z"/>
      <path class="st0" d="M537.18,66.89v12.06l-7.65.28c-7.63.26-12.84-1.06-15.63-3.96-1.81-1.85-2.72-4.7-2.72-8.55V28.72h-8.61v-11.5h8.61V0h15.97v17.22h10.03v11.5h-10.03v32.62c0,2.53.32,4.11.96,4.73.64.62,2.61.94,5.89.94.49,0,1.01,0,1.56-.03.55-.02,1.09-.05,1.62-.08Z"/>
    </g>
    <g class="st2">
      <path class="st1" d="M578.59,31.55c-6.5,0-10.86,2.12-13.08,6.34-1.25,2.38-1.87,6.04-1.87,10.99v29.51h-16.26V16.65h15.41v10.76c2.49-4.12,4.66-6.93,6.51-8.44,3.02-2.53,6.95-3.79,11.78-3.79.3,0,.56,0,.76.03.21.02.67.05,1.39.09v16.54c-1.02-.11-1.93-.19-2.72-.23s-1.44-.06-1.93-.06Z"/>
      <path class="st1" d="M645.54,60.27c-.42,3.66-2.32,7.38-5.72,11.16-5.29,6-12.69,9.01-22.2,9.01-7.86,0-14.78-2.53-20.79-7.59s-9.01-13.29-9.01-24.7c0-10.69,2.71-18.88,8.13-24.58s12.45-8.55,21.1-8.55c5.13,0,9.76.96,13.88,2.89,4.12,1.93,7.51,4.96,10.2,9.12,2.42,3.66,3.98,7.91,4.7,12.74.41,2.83.58,6.91.51,12.23h-42.25c.23,6.19,2.17,10.54,5.83,13.03,2.23,1.55,4.91,2.32,8.04,2.32,3.32,0,6.02-.94,8.1-2.83,1.13-1.02,2.13-2.44,3-4.25h16.48ZM629.56,41.35c-.27-4.27-1.56-7.5-3.88-9.71-2.32-2.21-5.2-3.31-8.64-3.31-3.74,0-6.64,1.17-8.7,3.51s-3.35,5.51-3.88,9.52h25.09Z"/>
      <path class="st1" d="M699.74,19.48c4.83,3.1,7.61,8.42,8.33,15.97h-16.14c-.23-2.08-.81-3.72-1.76-4.93-1.78-2.19-4.8-3.29-9.06-3.29-3.51,0-6.01.55-7.51,1.64s-2.24,2.38-2.24,3.85c0,1.85.79,3.19,2.38,4.02,1.59.87,7.19,2.36,16.82,4.47,6.42,1.51,11.23,3.79,14.44,6.85,3.17,3.1,4.76,6.97,4.76,11.61,0,6.12-2.28,11.11-6.83,14.98-4.55,3.87-11.58,5.81-21.1,5.81s-16.87-2.05-21.5-6.15c-4.62-4.1-6.94-9.32-6.94-15.66h16.37c.34,2.87,1.08,4.91,2.21,6.12,2,2.15,5.7,3.23,11.1,3.23,3.17,0,5.69-.47,7.56-1.42s2.8-2.36,2.8-4.25-.76-3.19-2.27-4.13c-1.51-.94-7.12-2.57-16.82-4.87-6.99-1.74-11.91-3.91-14.78-6.51-2.87-2.57-4.3-6.27-4.3-11.1,0-5.7,2.24-10.6,6.71-14.7,4.47-4.1,10.77-6.15,18.89-6.15s13.99,1.53,18.86,4.59Z"/>
      <path class="st1" d="M773.43,23.28c4.98,5.32,7.48,13.14,7.48,23.45,0,10.88-2.45,19.16-7.34,24.87s-11.19,8.55-18.89,8.55c-4.91,0-8.99-1.23-12.23-3.68-1.78-1.36-3.51-3.34-5.21-5.95v32.17h-15.97V16.65h15.46v9.12c1.74-2.68,3.59-4.79,5.55-6.34,3.59-2.76,7.85-4.13,12.8-4.13,7.21,0,13.33,2.66,18.35,7.99ZM764.26,47.52c0-4.76-1.09-8.97-3.26-12.63s-5.69-5.49-10.56-5.49c-5.85,0-9.88,2.78-12.06,8.33-1.13,2.95-1.7,6.68-1.7,11.21,0,7.17,1.91,12.21,5.72,15.12,2.27,1.7,4.95,2.55,8.04,2.55,4.49,0,7.92-1.74,10.28-5.21s3.54-8.1,3.54-13.88Z"/>
      <path class="st1" d="M844.06,24.47c5.21,6.53,7.82,14.25,7.82,23.17s-2.61,16.81-7.82,23.25c-5.21,6.44-13.12,9.66-23.73,9.66s-18.52-3.22-23.73-9.66c-5.21-6.44-7.82-14.19-7.82-23.25s2.61-16.63,7.82-23.17,13.12-9.8,23.73-9.8,18.52,3.27,23.73,9.8ZM820.27,28.32c-4.72,0-8.36,1.67-10.9,5.01-2.55,3.34-3.82,8.11-3.82,14.3s1.27,10.97,3.82,14.33,6.18,5.04,10.9,5.04,8.34-1.68,10.88-5.04c2.53-3.36,3.79-8.14,3.79-14.33s-1.27-10.96-3.79-14.3c-2.53-3.34-6.16-5.01-10.88-5.01Z"/>
      <path class="st1" d="M892.49,28.6c-5.48,0-9.23,2.32-11.27,6.97-1.06,2.46-1.59,5.59-1.59,9.4v33.42h-16.09V16.77h15.58v9.01c2.08-3.17,4.04-5.46,5.89-6.85,3.32-2.49,7.53-3.74,12.63-3.74,6.38,0,11.6,1.67,15.66,5.01,4.06,3.34,6.09,8.88,6.09,16.62v41.57h-16.54v-37.55c0-3.25-.44-5.74-1.3-7.48-1.59-3.17-4.61-4.76-9.06-4.76Z"/>
      <path class="st1" d="M976.83,19.48c4.83,3.1,7.61,8.42,8.33,15.97h-16.14c-.23-2.08-.81-3.72-1.76-4.93-1.78-2.19-4.8-3.29-9.06-3.29-3.51,0-6.01.55-7.51,1.64s-2.24,2.38-2.24,3.85c0,1.85.79,3.19,2.38,4.02,1.59.87,7.19,2.36,16.82,4.47,6.42,1.51,11.23,3.79,14.44,6.85,3.17,3.1,4.76,6.97,4.76,11.61,0,6.12-2.28,11.11-6.83,14.98-4.55,3.87-11.58,5.81-21.1,5.81s-16.87-2.05-21.5-6.15c-4.62-4.1-6.94-9.32-6.94-15.66h16.37c.34,2.87,1.08,4.91,2.21,6.12,2,2.15,5.7,3.23,11.1,3.23,3.17,0,5.69-.47,7.56-1.42s2.8-2.36,2.8-4.25-.76-3.19-2.27-4.13c-1.51-.94-7.12-2.57-16.82-4.87-6.99-1.74-11.91-3.91-14.78-6.51-2.87-2.57-4.3-6.27-4.3-11.1,0-5.7,2.24-10.6,6.71-14.7,4.47-4.1,10.77-6.15,18.89-6.15s13.99,1.53,18.86,4.59Z"/>
      <path class="st1" d="M1051.65,60.27c-.42,3.66-2.32,7.38-5.72,11.16-5.29,6-12.69,9.01-22.2,9.01-7.86,0-14.78-2.53-20.79-7.59s-9.01-13.29-9.01-24.7c0-10.69,2.71-18.88,8.13-24.58s12.45-8.55,21.1-8.55c5.13,0,9.76.96,13.88,2.89,4.12,1.93,7.51,4.96,10.2,9.12,2.42,3.66,3.98,7.91,4.7,12.74.41,2.83.58,6.91.51,12.23h-42.25c.23,6.19,2.17,10.54,5.83,13.03,2.23,1.55,4.91,2.32,8.04,2.32,3.32,0,6.02-.94,8.1-2.83,1.13-1.02,2.13-2.44,3-4.25h16.48ZM1035.68,41.35c-.27-4.27-1.56-7.5-3.88-9.71-2.32-2.21-5.2-3.31-8.64-3.31-3.74,0-6.64,1.17-8.7,3.51s-3.35,5.51-3.88,9.52h25.09Z"/>
    </g>
  </g>
</svg>